<svg width="40" height="27" viewBox="0 0 40 27" fill="none" xmlns="http://www.w3.org/2000/svg">
<path d="M5 1H8.25C10.4591 1 12.25 2.79086 12.25 5V21.75C12.25 23.9591 10.4591 25.75 8.25 25.75H5C2.79086 25.75 1 23.9591 1 21.75V5C1 2.79086 2.79086 1 5 1Z" fill="black" stroke="black"/>
<path d="M31.4375 1H34.6875C36.8966 1 38.6875 2.79086 38.6875 5V21.75C38.6875 23.9591 36.8966 25.75 34.6875 25.75H31.4375C29.2284 25.75 27.4375 23.9591 27.4375 21.75V5C27.4375 2.79086 29.2284 1 31.4375 1Z" fill="black" stroke="black"/>
<g style="mix-blend-mode:darken">
<path d="M27.4375 9.4375H12.25V18.4375H27.4375V9.4375Z" fill="#A0A0A0"/>
<path d="M27.4375 9.4375H12.25V18.4375H27.4375V9.4375Z" stroke="#A0A0A0"/>
</g>
</svg>
