<svg width="45" height="49" viewBox="0 0 45 49" fill="none" xmlns="http://www.w3.org/2000/svg">
<path d="M18.0295 31.103L26.0146 33.0717C27.6492 33.4748 28.6323 35.1438 28.1921 36.7688L25.15 48M18.0295 31.103L15.0973 36.8328C14.7165 37.5769 14.0425 38.1285 13.2376 38.3544L1 41.7903M18.0295 31.103L25.15 15M25.15 15L32.9234 23.2305C33.9931 24.3632 35.7519 24.4885 36.9714 23.5189L43 18.7258M25.15 15H14.5577C13.4326 15 12.402 15.6295 11.8885 16.6306L7.475 25.2334" stroke="black" stroke-width="5"/>
<circle cx="29" cy="6" r="6" fill="black"/>
<path d="M26 15L20 31" stroke="black" stroke-width="5"/>
</svg>
